
<svg enable-background="new 0 0 24 24" id="Layer_1" version="1.1" viewBox="0 0 24 24" x="0px" xml:space="preserve" xmlns="http://www.w3.org/2000/svg" xmlns:xlink="http://www.w3.org/1999/xlink" y="0px">
  <path class="aw-theme-iconOutline" d="M7.5,24c-0.1,0-0.1,0-0.2,0C7.1,23.9,7,23.7,7,23.5V18H3.5C1.6,18,0,16.4,0,14.5v-11C0,1.6,1.6,0,3.5,0h17  C22.4,0,24,1.6,24,3.5v11c0,1.9-1.6,3.5-3.5,3.5h-6.8l-5.9,5.9C7.8,23.9,7.6,24,7.5,24z M3.5,1C2.1,1,1,2.1,1,3.5v11  C1,15.9,2.1,17,3.5,17h4C7.8,17,8,17.2,8,17.5v4.8l5.1-5.1c0.1-0.1,0.2-0.1,0.4-0.1h7c1.4,0,2.5-1.1,2.5-2.5v-11  C23,2.1,21.9,1,20.5,1H3.5z" fill="#464646"/>
  <rect class="aw-theme-iconOutline" fill="#464646" height="1" width="14" x="5" y="4"/>
  <rect class="aw-theme-iconOutline" fill="#464646" height="1" width="14" x="5" y="7"/>
  <rect class="aw-theme-iconOutline" fill="#464646" height="1" width="14" x="5" y="10"/>
  <rect class="aw-theme-iconOutline" fill="#464646" height="1" width="11" x="5" y="13"/>
</svg>