
<svg enable-background="new 0 0 24 24" id="Layer_1" version="1.1" viewBox="0 0 24 24" x="0px" xml:space="preserve" xmlns="http://www.w3.org/2000/svg" xmlns:xlink="http://www.w3.org/1999/xlink" y="0px">
	<path class="aw-theme-iconOutline" d="M11.5,23C5.2,23,0,17.8,0,11.5C0,5.2,5.2,0,11.5,0C17.8,0,23,5.2,23,11.5C23,17.8,17.8,23,11.5,23z M11.5,1   C5.7,1,1,5.7,1,11.5C1,17.3,5.7,22,11.5,22C17.3,22,22,17.3,22,11.5C22,5.7,17.3,1,11.5,1z" fill="#464646"/>
	<polygon class="aw-theme-iconOutline" fill="#464646" points="19,11 12,11 12,4 11,4 11,11 4,11 4,12 11,12 11,19 12,19 12,12 19,12  "/>
</svg>